<svg width="1000" height="1000" viewBox="0 0 1000 1000" xmlns="http://www.w3.org/2000/svg"><defs/><path fill="#d00304" transform="matrix(0.6361231459203823 0 0 0.6361231459203824 41.91791232948714 19.540187064075468)" d="M 848.71542200328 370.72403504105 L 776.41542200328 397.52403504105 L 804.41542200328 403.52403504105 L 694.21542200328 536.92403504105 L 657.81542200328 518.42403504105 L 570.81542200328 620.62403504105 L 663.21542200328 540.82403504105 L 700.01542200328 557.72403504105 L 821.01542200328 420.92403504105 L 833.61542200328 444.22403504105 Z"/><path fill="#d00304" transform="matrix(0.6361231459203823 0 0 0.6361231459203824 41.91791232948714 19.540187064075468)" d="M 911.31542200328 525.52403504105 L 888.51542200328 489.52403504105 L 865.71542200328 525.52403504105 L 842.91542200328 561.52403504105 L 871.71542200328 561.52403504105 C 871.71542200328 612.32403504105 848.81542200328 657.82403504105 812.71542200328 688.32403504105 L 812.71542200328 452.32403504105 L 808.81542200328 456.62403504105 L 778.11542200328 491.02403504105 L 778.11542200328 710.72403504105 C 773.31542200328 713.02403504105 768.41542200328 715.12403504105 763.41542200328 717.02403504105 L 763.41542200328 507.62403504105 L 729.01542200328 546.32403504105 L 729.01542200328 725.82403504105 C 724.21542200328 726.52403504105 719.21542200328 727.02403504105 714.31542200328 727.22403504105 L 714.31542200328 562.82403504105 L 701.61542200328 577.12403504105 L 679.91542200328 567.12403504105 L 679.91542200328 725.42403504105 C 674.91542200328 724.62403504105 670.01542200328 723.62403504105 665.21542200328 722.42403504105 L 665.21542200328 560.42403504105 L 664.41542200328 560.02403504105 L 630.81542200328 589.02403504105 L 630.81542200328 709.52403504105 C 625.71542200328 706.92403504105 620.81542200328 704.12403504105 616.11542200328 701.02403504105 L 616.11542200328 601.62403504105 L 581.71542200328 631.32403504105 L 581.71542200328 671.42403504105 C 555.61542200328 642.12403504105 539.81542200328 603.52403504105 539.81542200328 561.32403504105 C 539.81542200328 469.82403504105 614.31542200328 395.32403504105 705.81542200328 395.32403504105 L 705.81542200328 361.72403504105 C 595.71542200328 361.72403504105 506.11542200328 451.32403504105 506.11542200328 561.42403504105 C 506.11542200328 671.52403504105 595.71542200328 761.12403504105 705.81542200328 761.12403504105 C 815.91542200328 761.12403504105 905.51542200328 671.52403504105 905.51542200328 561.42403504105 L 934.11542200328 561.42403504105 L 911.31542200328 525.52403504105 Z"/><path id="text" transform="matrix(1.869002920317063 0 0 1.869002920317063 -13.14142678347935 553.5414685022945)" d="M 87.28794642857 104.83729910714 L 87.28794642857 37.80604910714 L 99.70982142857 37.80604910714 L 135.10044642857 86.64979910714 L 135.10044642857 37.80604910714 L 147.05357142857 37.80604910714 L 147.05357142857 104.83729910714 L 134.63169642857 104.83729910714 L 99.24107142857 54.96229910714 L 99.24107142857 104.83729910714 L 87.28794642857 104.83729910714 Z M 180.70982142857 55.61854910714 C 195.64732142857 55.61854910714 203.11607142857 63.24354910714 203.11607142857 78.49354910714 C 203.11607142857 80.52479910714 202.97544642857 82.55604910714 202.69419642857 84.58729910714 L 170.02232142857 84.58729910714 C 170.02232142857 91.52479910714 175.11607142857 94.99354910714 185.30357142857 94.99354910714 C 190.27232142857 94.99354910714 195.24107142857 94.52479910714 200.20982142857 93.58729910714 L 200.20982142857 103.43104910714 C 195.86607142857 104.36854910714 190.58482142857 104.83729910714 184.36607142857 104.83729910714 C 166.52232142857 104.83729910714 157.60044642857 96.44667410714 157.60044642857 79.66542410714 C 157.60044642857 63.63417410714 165.30357142857 55.61854910714 180.70982142857 55.61854910714 Z M 170.02232142857 75.96229910714 L 191.02232142857 75.96229910714 L 191.02232142857 75.58729910714 C 191.02232142857 68.77479910714 187.58482142857 65.36854910714 180.70982142857 65.36854910714 C 174.14732142857 65.36854910714 170.58482142857 68.89979910714 170.02232142857 75.96229910714 Z M 225.00669642857 80.22792410714 L 206.58482142857 55.61854910714 L 220.41294642857 55.61854910714 L 231.89732142857 70.99354910714 L 243.38169642857 55.61854910714 L 257.20982142857 55.61854910714 L 238.83482142857 80.22792410714 L 257.20982142857 104.83729910714 L 243.38169642857 104.83729910714 L 231.89732142857 89.46229910714 L 220.41294642857 104.83729910714 L 206.58482142857 104.83729910714 L 225.00669642857 80.22792410714 Z M 317.67857142857 102.02479910714 C 311.89732142857 104.21229910714 305.33482142857 105.30604910714 297.99107142857 105.30604910714 C 273.92857142857 105.30604910714 261.89732142857 93.66542410714 261.89732142857 70.38417410714 C 261.89732142857 48.35292410714 273.92857142857 37.33729910714 297.99107142857 37.33729910714 C 305.33482142857 37.33729910714 311.89732142857 38.43104910714 317.67857142857 40.61854910714 L 317.67857142857 51.86854910714 C 311.89732142857 49.36854910714 305.64732142857 48.11854910714 298.92857142857 48.11854910714 C 282.83482142857 48.11854910714 274.78794642857 55.54042410714 274.78794642857 70.38417410714 C 274.78794642857 86.47792410714 282.83482142857 94.52479910714 298.92857142857 94.52479910714 C 305.64732142857 94.52479910714 311.89732142857 93.27479910714 317.67857142857 90.77479910714 L 317.67857142857 102.02479910714 Z M 329.39732142857 104.74354910714 L 329.39732142857 37.80604910714 L 359.86607142857 37.80604910714 C 373.55357142857 37.80604910714 380.39732142857 43.79042410714 380.39732142857 55.75917410714 C 380.39732142857 63.85292410714 375.06919642857 70.55604910714 364.41294642857 75.86854910714 L 385.64732142857 104.83729910714 L 369.99107142857 104.83729910714 L 349.60044642857 75.63417410714 L 349.60044642857 69.96229910714 C 361.47544642857 67.93104910714 367.41294642857 63.32167410714 367.41294642857 56.13417410714 C 367.41294642857 51.19667410714 364.63169642857 48.72792410714 359.06919642857 48.72792410714 L 342.05357142857 48.72792410714 L 342.05357142857 104.74354910714 L 329.39732142857 104.74354910714 Z M 391.50669642857 104.83729910714 L 391.50669642857 37.80604910714 L 404.39732142857 37.80604910714 L 427.13169642857 88.66542410714 L 449.39732142857 37.80604910714 L 461.81919642857 37.80604910714 L 461.81919642857 104.83729910714 L 450.33482142857 104.83729910714 L 450.33482142857 58.14979910714 L 432.14732142857 104.83729910714 L 421.55357142857 104.83729910714 L 402.99107142857 58.14979910714 L 402.99107142857 104.83729910714 L 391.50669642857 104.83729910714 Z"/></svg>