<svg width="1000" height="1000" viewBox="0 0 1000 1000" xmlns="http://www.w3.org/2000/svg"><defs/><g opacity="0.3" transform="matrix(0.7805317159606339 0 0 0.7805317159606339 11.048999186888352 20.476390900872858)"><path fill="#181612" d="M 632.79352362947 385.44326551791 C 647.59352362947 369.04326551791 665.29352362947 355.84326551791 684.59352362947 346.04326551791 C 668.89352362947 326.74326551791 649.19352362947 310.84326551791 626.79352362947 299.44326551791 C 607.19352362947 309.34326551791 589.69352362947 322.84326551791 574.99352362947 338.94326551791 C 596.99352362947 350.14326551791 616.79352362947 365.84326551791 632.79352362947 385.44326551791 Z"/></g><g opacity="0.3" transform="matrix(0.7805317159606339 0 0 0.7805317159606339 11.048999186888352 20.476390900872858)"><path fill="#181612" d="M 574.99352362947 339.04326551791 C 555.59352362947 329.24326551791 534.39352362947 322.94326551791 512.49352362947 320.74326551791 C 495.59352362947 339.44326551791 482.99352362947 361.34326551791 475.19352362947 385.04326551791 C 496.69352362947 387.34326551791 517.89352362947 393.44326551791 537.59352362947 403.44326551791 C 545.39352362947 379.24326551791 558.29352362947 357.44326551791 574.99352362947 339.04326551791 Z"/></g><path fill="#181612" transform="matrix(0.7805317159606339 0 0 0.7805317159606339 11.048999186888352 20.476390900872858)" d="M 626.19352362947 618.04326551791 C 626.39352362947 618.14326551791 626.59352362947 618.24326551791 626.79352362947 618.34326551791 C 626.59352362947 618.14326551791 626.49352362947 617.94326551791 626.29352362947 617.74326551791 C 626.19352362947 617.84326551791 626.19352362947 617.94326551791 626.19352362947 618.04326551791 Z"/><g opacity="0.3" transform="matrix(0.7805317159606339 0 0 0.7805317159606339 11.048999186888352 20.476390900872858)"><path fill="#181612" d="M 787.59352362947 384.24326551791 C 780.79352362947 363.54326551791 770.29352362947 344.14326551791 756.39352362947 327.04326551791 C 731.29352362947 328.34326551791 706.79352362947 334.84326551791 684.59352362947 346.04326551791 C 698.29352362947 362.84326551791 708.99352362947 382.04326551791 715.89352362947 403.04326551791 C 738.39352362947 391.74326551791 762.89352362947 385.44326551791 787.59352362947 384.24326551791 Z"/></g><g opacity="0.3" transform="matrix(0.7805317159606339 0 0 0.7805317159606339 11.048999186888352 20.476390900872858)"><path fill="#181612" d="M 478.09352362947 504.64326551791 C 462.79352362947 464.74326551791 462.79352362947 422.64326551791 475.19352362947 384.94326551791 C 450.19352362947 382.34326551791 424.79352362947 384.94326551791 400.69352362947 392.84326551791 C 380.39352362947 454.84326551791 394.79352362947 525.64326551791 444.09352362947 574.84326551791 C 493.39352362947 624.14326551791 564.89352362947 638.54326551791 626.79352362947 618.24326551791 C 626.79352362947 618.24326551791 626.19352362947 618.14326551791 626.19352362947 618.14326551791 C 561.49352362947 611.34326551791 502.89352362947 569.44326551791 478.09352362947 504.64326551791 Z"/></g><g opacity="0.7" transform="matrix(0.7805317159606339 0 0 0.7805317159606339 11.048999186888352 20.476390900872858)"><path fill="#181612" d="M 626.19352362947 618.04326551791 C 568.39352362947 588.44326551791 528.69352362947 528.34326551791 528.69352362947 458.94326551791 C 528.69352362947 439.54326551791 531.79352362947 420.94326551791 537.49352362947 403.44326551791 C 517.79352362947 393.44326551791 496.59352362947 387.24326551791 475.09352362947 385.04326551791 C 462.69352362947 422.74326551791 462.69352362947 464.74326551791 477.99352362947 504.74326551791 C 502.89352362947 569.54326551791 561.39352362947 611.44326551791 625.99352362947 618.34326551791 C 626.19352362947 618.34326551791 626.39352362947 618.44326551791 626.59352362947 618.44326551791 C 626.49352362947 618.24326551791 626.39352362947 618.14326551791 626.19352362947 618.04326551791 Z"/></g><path fill="#181612" transform="matrix(0.7805317159606339 0 0 0.7805317159606339 11.048999186888352 20.476390900872858)" d="M 595.29352362947 450.24326551791 C 597.19352362947 444.34326551791 599.39352362947 438.54326551791 601.99352362947 432.74326551791 C 609.89352362947 414.94326551791 620.39352362947 399.04326551791 632.79352362947 385.34326551791 C 616.79352362947 365.74326551791 596.99352362947 350.04326551791 574.89352362947 338.94326551791 C 558.19352362947 357.34326551791 545.29352362947 379.14326551791 537.39352362947 403.34326551791 C 531.69352362947 420.84326551791 528.59352362947 439.44326551791 528.59352362947 458.84326551791 C 528.59352362947 528.24326551791 568.19352362947 588.34326551791 626.09352362947 617.94326551791 C 626.09352362947 617.84326551791 626.19352362947 617.74326551791 626.19352362947 617.64326551791 C 589.19352362947 571.74326551791 576.19352362947 508.94326551791 595.29352362947 450.24326551791 Z"/><g opacity="0.3" transform="matrix(0.7805317159606339 0 0 0.7805317159606339 11.048999186888352 20.476390900872858)"><path fill="#181612" d="M 852.19352362947 392.84326551791 C 831.29352362947 386.04326551791 809.39352362947 383.14326551791 787.59352362947 384.14326551791 C 800.99352362947 424.74326551791 799.89352362947 470.34326551791 781.09352362947 512.44326551791 C 752.79352362947 576.04326551791 691.79352362947 614.94326551791 626.69352362947 618.24326551791 C 688.69352362947 638.54326551791 759.49352362947 624.14326551791 808.69352362947 574.84326551791 C 857.99352362947 525.64326551791 872.49352362947 454.84326551791 852.19352362947 392.84326551791 Z"/></g><g opacity="0.7" transform="matrix(0.7805317159606339 0 0 0.7805317159606339 11.048999186888352 20.476390900872858)"><path fill="#181612" d="M 781.09352362947 512.54326551791 C 799.89352362947 470.34326551791 800.99352362947 424.84326551791 787.59352362947 384.24326551791 C 762.89352362947 385.44326551791 738.39352362947 391.74326551791 715.89352362947 403.14326551791 C 721.69352362947 420.74326551791 724.79352362947 439.44326551791 724.79352362947 458.94326551791 C 724.79352362947 528.64326551791 684.89352362947 588.84326551791 626.79352362947 618.34326551791 C 691.79352362947 615.04326551791 752.79352362947 576.14326551791 781.09352362947 512.54326551791 Z"/></g><path fill="#181612" transform="matrix(0.7805317159606339 0 0 0.7805317159606339 11.048999186888352 20.476390900872858)" d="M 715.89352362947 403.14326551791 C 708.99352362947 382.14326551791 698.29352362947 362.84326551791 684.59352362947 346.14326551791 C 665.29352362947 355.84326551791 647.69352362947 369.14326551791 632.79352362947 385.54326551791 C 644.49352362947 399.84326551791 654.09352362947 416.24326551791 661.09352362947 434.44326551791 C 662.19352362947 437.24326551791 663.09352362947 439.94326551791 663.99352362947 442.74326551791 C 684.59352362947 505.44326551791 668.49352362947 572.04326551791 626.69352362947 618.34326551791 C 684.89352362947 588.84326551791 724.69352362947 528.54326551791 724.69352362947 458.94326551791 C 724.79352362947 439.44326551791 721.59352362947 420.64326551791 715.89352362947 403.14326551791 Z"/><path fill="#f5f5dc" transform="matrix(0.7805317159606339 0 0 0.7805317159606339 11.048999186888352 20.476390900872858)" d="M 664.09352362947 442.74326551791 C 663.19352362947 439.94326551791 662.19352362947 437.14326551791 661.19352362947 434.44326551791 C 654.19352362947 416.24326551791 644.59352362947 399.84326551791 632.89352362947 385.54326551791 C 620.49352362947 399.24326551791 609.99352362947 415.04326551791 602.09352362947 432.94326551791 C 599.49352362947 438.74326551791 597.29352362947 444.54326551791 595.39352362947 450.44326551791 C 576.29352362947 509.14326551791 589.29352362947 571.94326551791 626.39352362947 617.84326551791 C 626.59352362947 618.04326551791 626.69352362947 618.24326551791 626.89352362947 618.44326551791 C 668.59352362947 572.04326551791 684.69352362947 505.34326551791 664.09352362947 442.74326551791 Z"/><path id="text" fill="#808080" transform="matrix(1.6863243909959913 0 0 1.6863243909959913 -6.961147086031453 583.2784150477952)" d="M 111.70285714286 89.655424 L 137.81485714286 89.655424 L 141.07885714286 73.047424 L 146.35885714286 73.047424 L 146.35885714286 95.415424 L 93.07885714286 95.415424 L 93.07885714286 91.287424 L 102.10285714286 89.271424 L 102.10285714286 32.439424 L 93.07885714286 30.423424 L 93.07885714286 26.295424 L 121.68685714286 26.295424 L 121.68685714286 30.423424 L 111.70285714286 32.439424 L 111.70285714286 89.655424 Z M 163.54285714286 70.071424 C 163.54285714286 74.743424 164.18285714286 78.615424 165.46285714286 81.687424 C 166.74285714286 84.695424 168.55085714286 86.823424 170.88685714286 88.071424 C 173.22285714286 89.319424 175.79885714286 89.943424 178.61485714286 89.943424 C 181.68685714286 89.943424 184.45485714286 89.319424 186.91885714286 88.071424 C 189.38285714286 86.823424 191.60685714286 85.111424 193.59085714286 82.935424 L 196.66285714286 85.239424 C 195.51085714286 86.775424 194.27885714286 88.215424 192.96685714286 89.559424 C 191.65485714286 90.903424 190.16685714286 92.087424 188.50285714286 93.111424 C 186.83885714286 94.135424 184.98285714286 94.935424 182.93485714286 95.511424 C 180.88685714286 96.087424 178.61485714286 96.375424 176.11885714286 96.375424 C 171.70285714286 96.375424 167.79885714286 95.431424 164.40685714286 93.543424 C 161.01485714286 91.655424 158.42285714286 88.887424 156.63085714286 85.239424 C 155.67085714286 83.255424 154.96685714286 81.063424 154.51885714286 78.663424 C 154.07085714286 76.263424 153.84685714286 73.655424 153.84685714286 70.839424 C 153.84685714286 61.815424 155.89485714286 54.855424 159.99085714286 49.959424 C 164.08685714286 45.063424 169.71885714286 42.615424 176.88685714286 42.615424 C 183.47885714286 42.615424 188.53485714286 44.647424 192.05485714286 48.711424 C 195.57485714286 52.775424 197.33485714286 58.391424 197.33485714286 65.559424 C 197.33485714286 66.199424 197.31885714286 66.791424 197.28685714286 67.335424 C 197.25485714286 67.879424 197.17485714286 68.791424 197.04685714286 70.071424 L 163.54285714286 70.071424 Z M 176.31085714286 47.799424 C 168.63085714286 47.799424 164.40685714286 53.655424 163.63885714286 65.367424 L 187.63885714286 65.367424 L 187.63885714286 62.199424 C 187.63885714286 57.591424 186.66285714286 54.039424 184.71085714286 51.543424 C 182.75885714286 49.047424 179.95885714286 47.799424 176.31085714286 47.799424 Z M 212.40685714286 49.335424 L 205.01485714286 47.511424 L 205.01485714286 43.575424 L 218.83885714286 43.575424 L 220.95085714286 53.175424 L 221.33485714286 53.175424 C 223.19085714286 49.911424 225.67085714286 47.335424 228.77485714286 45.447424 C 231.87885714286 43.559424 235.19085714286 42.615424 238.71085714286 42.615424 C 241.39885714286 42.615424 243.75085714286 43.111424 245.76685714286 44.103424 C 247.78285714286 45.095424 249.27085714286 46.327424 250.23085714286 47.799424 C 251.25485714286 49.399424 252.08685714286 51.511424 252.72685714286 54.135424 C 254.77485714286 50.487424 257.43085714286 47.655424 260.69485714286 45.639424 C 263.95885714286 43.623424 267.44685714286 42.615424 271.15885714286 42.615424 C 273.71885714286 42.615424 276.02285714286 43.111424 278.07085714286 44.103424 C 280.11885714286 45.095424 281.68685714286 46.455424 282.77485714286 48.183424 C 283.35085714286 49.079424 283.83085714286 50.167424 284.21485714286 51.447424 C 284.59885714286 52.727424 284.91885714286 54.311424 285.17485714286 56.199424 C 285.43085714286 58.087424 285.60685714286 60.311424 285.70285714286 62.871424 C 285.79885714286 65.431424 285.84685714286 68.439424 285.84685714286 71.895424 L 285.84685714286 89.655424 L 293.23885714286 91.479424 L 293.23885714286 95.415424 L 270.10285714286 95.415424 L 270.10285714286 91.479424 L 276.53485714286 89.655424 L 276.53485714286 68.247424 C 276.53485714286 64.151424 276.42285714286 61.063424 276.19885714286 58.983424 C 275.97485714286 56.903424 275.57485714286 55.287424 274.99885714286 54.135424 C 273.39885714286 50.999424 270.71085714286 49.431424 266.93485714286 49.431424 C 265.27085714286 49.431424 263.68685714286 49.751424 262.18285714286 50.391424 C 260.67885714286 51.031424 259.31885714286 51.895424 258.10285714286 52.983424 C 256.69485714286 54.263424 255.65485714286 55.751424 254.98285714286 57.447424 C 254.31085714286 59.143424 253.91085714286 61.335424 253.78285714286 64.023424 L 253.78285714286 89.655424 L 260.21485714286 91.479424 L 260.21485714286 95.415424 L 238.03885714286 95.415424 L 238.03885714286 91.479424 L 244.47085714286 89.655424 L 244.47085714286 68.247424 C 244.47085714286 64.151424 244.35885714286 61.063424 244.13485714286 58.983424 C 243.91085714286 56.903424 243.51085714286 55.287424 242.93485714286 54.135424 C 241.33485714286 50.999424 238.64685714286 49.431424 234.87085714286 49.431424 C 233.20685714286 49.431424 231.62285714286 49.751424 230.11885714286 50.391424 C 228.61485714286 51.031424 227.25485714286 51.895424 226.03885714286 52.983424 C 224.63085714286 54.263424 223.59085714286 55.751424 222.91885714286 57.447424 C 222.24685714286 59.143424 221.84685714286 61.335424 221.71885714286 64.023424 L 221.71885714286 89.655424 L 228.15085714286 91.479424 L 228.15085714286 95.415424 L 205.01485714286 95.415424 L 205.01485714286 91.479424 L 212.40685714286 89.655424 L 212.40685714286 49.335424 Z M 348.43885714286 69.015424 C 348.43885714286 73.239424 347.83085714286 77.191424 346.61485714286 80.871424 C 345.39885714286 84.551424 343.70285714286 87.639424 341.52685714286 90.135424 C 337.94285714286 94.295424 332.79085714286 96.375424 326.07085714286 96.375424 C 322.80685714286 96.375424 319.89485714286 95.623424 317.33485714286 94.119424 C 314.77485714286 92.615424 312.50285714286 89.815424 310.51885714286 85.719424 L 307.63885714286 95.415424 L 303.12685714286 95.415424 L 303.12685714286 26.295424 L 295.73485714286 24.471424 L 295.73485714286 20.535424 L 312.43885714286 20.535424 L 312.43885714286 49.143424 C 314.35885714286 46.711424 316.50285714286 45.015424 318.87085714286 44.055424 C 321.23885714286 43.095424 323.89485714286 42.615424 326.83885714286 42.615424 C 330.10285714286 42.615424 333.06285714286 43.095424 335.71885714286 44.055424 C 338.37485714286 45.015424 340.53485714286 46.551424 342.19885714286 48.663424 C 344.18285714286 51.095424 345.71885714286 54.071424 346.80685714286 57.591424 C 347.89485714286 61.111424 348.43885714286 64.919424 348.43885714286 69.015424 Z M 312.43885714286 69.111424 C 312.43885714286 76.983424 313.55885714286 82.711424 315.79885714286 86.295424 C 316.82285714286 87.959424 318.07085714286 89.223424 319.54285714286 90.087424 C 321.01485714286 90.951424 322.96685714286 91.383424 325.39885714286 91.383424 C 329.75085714286 91.383424 332.98285714286 89.879424 335.09485714286 86.871424 C 336.24685714286 85.207424 337.07885714286 82.903424 337.59085714286 79.959424 C 338.10285714286 77.015424 338.35885714286 73.623424 338.35885714286 69.783424 C 338.35885714286 62.103424 337.23885714286 56.407424 334.99885714286 52.695424 C 333.91085714286 51.031424 332.63085714286 49.767424 331.15885714286 48.903424 C 329.68685714286 48.039424 327.73485714286 47.607424 325.30285714286 47.607424 C 323.06285714286 47.607424 321.14285714286 47.975424 319.54285714286 48.711424 C 317.94285714286 49.447424 316.69485714286 50.551424 315.79885714286 52.023424 C 314.71085714286 53.815424 313.87885714286 56.135424 313.30285714286 58.983424 C 312.72685714286 61.831424 312.43885714286 65.207424 312.43885714286 69.111424 Z M 404.31085714286 69.015424 C 404.31085714286 73.239424 403.68685714286 77.207424 402.43885714286 80.919424 C 401.19085714286 84.631424 399.44685714286 87.703424 397.20685714286 90.135424 C 393.43085714286 94.295424 387.86285714286 96.375424 380.50285714286 96.375424 C 373.33485714286 96.375424 367.86285714286 94.359424 364.08685714286 90.327424 C 361.91085714286 87.959424 360.23085714286 85.031424 359.04685714286 81.543424 C 357.86285714286 78.055424 357.27085714286 74.263424 357.27085714286 70.167424 C 357.27085714286 65.943424 357.87885714286 61.943424 359.09485714286 58.167424 C 360.31085714286 54.391424 362.07085714286 51.287424 364.37485714286 48.855424 C 366.42285714286 46.679424 368.79085714286 45.095424 371.47885714286 44.103424 C 374.16685714286 43.111424 377.30285714286 42.615424 380.88685714286 42.615424 C 384.40685714286 42.615424 387.57485714286 43.111424 390.39085714286 44.103424 C 393.20685714286 45.095424 395.57485714286 46.615424 397.49485714286 48.663424 C 399.73485714286 51.031424 401.43085714286 53.991424 402.58285714286 57.543424 C 403.73485714286 61.095424 404.31085714286 64.919424 404.31085714286 69.015424 Z M 367.54285714286 69.111424 C 367.54285714286 76.791424 368.69485714286 82.519424 370.99885714286 86.295424 C 372.08685714286 87.959424 373.38285714286 89.223424 374.88685714286 90.087424 C 376.39085714286 90.951424 378.35885714286 91.383424 380.79085714286 91.383424 C 385.20685714286 91.383424 388.50285714286 89.879424 390.67885714286 86.871424 C 391.83085714286 85.207424 392.67885714286 82.903424 393.22285714286 79.959424 C 393.76685714286 77.015424 394.03885714286 73.623424 394.03885714286 69.783424 C 394.03885714286 62.167424 392.88685714286 56.471424 390.58285714286 52.695424 C 389.49485714286 51.031424 388.18285714286 49.767424 386.64685714286 48.903424 C 385.11085714286 48.039424 383.12685714286 47.607424 380.69485714286 47.607424 C 376.21485714286 47.607424 372.98285714286 49.079424 370.99885714286 52.023424 C 368.69485714286 55.607424 367.54285714286 61.303424 367.54285714286 69.111424 Z M 432.15085714286 91.959424 C 435.79885714286 91.959424 438.74285714286 91.239424 440.98285714286 89.799424 C 443.22285714286 88.359424 444.34285714286 86.295424 444.34285714286 83.607424 C 444.34285714286 82.007424 443.92685714286 80.663424 443.09485714286 79.575424 C 442.26285714286 78.487424 441.19085714286 77.559424 439.87885714286 76.791424 C 438.56685714286 76.023424 437.09485714286 75.367424 435.46285714286 74.823424 C 433.83085714286 74.279424 432.24685714286 73.783424 430.71085714286 73.335424 C 428.72685714286 72.759424 426.79085714286 72.087424 424.90285714286 71.319424 C 423.01485714286 70.551424 421.31885714286 69.575424 419.81485714286 68.391424 C 418.31085714286 67.207424 417.11085714286 65.767424 416.21485714286 64.071424 C 415.31885714286 62.375424 414.87085714286 60.311424 414.87085714286 57.879424 C 414.87085714286 53.271424 416.55085714286 49.575424 419.91085714286 46.791424 C 423.27085714286 44.007424 427.95885714286 42.615424 433.97485714286 42.615424 C 439.09485714286 42.615424 443.14285714286 43.687424 446.11885714286 45.831424 C 449.09485714286 47.975424 450.58285714286 50.903424 450.58285714286 54.615424 C 450.58285714286 56.663424 450.13485714286 58.263424 449.23885714286 59.415424 C 448.34285714286 60.567424 447.06285714286 61.143424 445.39885714286 61.143424 C 443.92685714286 61.143424 442.71085714286 60.695424 441.75085714286 59.799424 C 440.79085714286 58.903424 440.31085714286 57.751424 440.31085714286 56.343424 C 440.31085714286 55.127424 440.63085714286 54.023424 441.27085714286 53.031424 C 441.91085714286 52.039424 442.74285714286 51.319424 443.76685714286 50.871424 C 442.80685714286 49.527424 441.57485714286 48.551424 440.07085714286 47.943424 C 438.56685714286 47.335424 436.63085714286 47.031424 434.26285714286 47.031424 C 426.58285714286 47.031424 422.74285714286 49.751424 422.74285714286 55.191424 C 422.74285714286 56.663424 422.99885714286 57.879424 423.51085714286 58.839424 C 424.02285714286 59.799424 424.79085714286 60.631424 425.81485714286 61.335424 C 426.83885714286 62.039424 428.10285714286 62.663424 429.60685714286 63.207424 C 431.11085714286 63.751424 432.85485714286 64.343424 434.83885714286 64.983424 C 437.01485714286 65.687424 439.15885714286 66.423424 441.27085714286 67.191424 C 443.38285714286 67.959424 445.28685714286 68.919424 446.98285714286 70.071424 C 448.67885714286 71.223424 450.05485714286 72.663424 451.11085714286 74.391424 C 452.16685714286 76.119424 452.69485714286 78.263424 452.69485714286 80.823424 C 452.69485714286 83.319424 452.18285714286 85.527424 451.15885714286 87.447424 C 450.13485714286 89.367424 448.69485714286 90.983424 446.83885714286 92.295424 C 444.98285714286 93.607424 442.77485714286 94.615424 440.21485714286 95.319424 C 437.65485714286 96.023424 434.83885714286 96.375424 431.76685714286 96.375424 C 426.07085714286 96.375424 421.51085714286 95.239424 418.08685714286 92.967424 C 414.66285714286 90.695424 412.95085714286 87.575424 412.95085714286 83.607424 C 412.95085714286 81.559424 413.41485714286 79.943424 414.34285714286 78.759424 C 415.27085714286 77.575424 416.59885714286 76.983424 418.32685714286 76.983424 C 419.86285714286 76.983424 421.15885714286 77.431424 422.21485714286 78.327424 C 423.27085714286 79.223424 423.79885714286 80.407424 423.79885714286 81.879424 C 423.79885714286 83.095424 423.46285714286 84.247424 422.79085714286 85.335424 C 422.11885714286 86.423424 421.30285714286 87.223424 420.34285714286 87.735424 C 421.17485714286 89.015424 422.66285714286 90.039424 424.80685714286 90.807424 C 426.95085714286 91.575424 429.39885714286 91.959424 432.15085714286 91.959424 Z M 460.66285714286 84.183424 C 460.66285714286 81.687424 461.22285714286 79.479424 462.34285714286 77.559424 C 463.46285714286 75.639424 465.23885714286 73.927424 467.67085714286 72.423424 C 470.10285714286 70.919424 473.23885714286 69.623424 477.07885714286 68.535424 C 480.91885714286 67.447424 485.52685714286 66.487424 490.90285714286 65.655424 C 490.58285714286 61.879424 490.21485714286 58.935424 489.79885714286 56.823424 C 489.38285714286 54.711424 488.82285714286 53.015424 488.11885714286 51.735424 C 487.22285714286 50.071424 485.97485714286 48.839424 484.37485714286 48.039424 C 482.77485714286 47.239424 481.04685714286 46.839424 479.19085714286 46.839424 C 477.39885714286 46.839424 475.78285714286 47.159424 474.34285714286 47.799424 C 472.90285714286 48.439424 471.92685714286 49.303424 471.41485714286 50.391424 C 472.31085714286 51.095424 472.96685714286 51.943424 473.38285714286 52.935424 C 473.79885714286 53.927424 474.00685714286 54.871424 474.00685714286 55.767424 C 474.00685714286 57.367424 473.47885714286 58.631424 472.42285714286 59.559424 C 471.36685714286 60.487424 470.07085714286 60.951424 468.53485714286 60.951424 C 466.99885714286 60.951424 465.73485714286 60.439424 464.74285714286 59.415424 C 463.75085714286 58.391424 463.25485714286 56.951424 463.25485714286 55.095424 C 463.25485714286 53.111424 463.79885714286 51.335424 464.88685714286 49.767424 C 465.97485714286 48.199424 467.39885714286 46.887424 469.15885714286 45.831424 C 470.91885714286 44.775424 472.90285714286 43.975424 475.11085714286 43.431424 C 477.31885714286 42.887424 479.51085714286 42.615424 481.68685714286 42.615424 C 487.12685714286 42.615424 491.41485714286 44.183424 494.55085714286 47.319424 C 498.51885714286 51.287424 500.50285714286 58.327424 500.50285714286 68.439424 L 500.50285714286 82.359424 C 500.50285714286 85.559424 500.71085714286 87.751424 501.12685714286 88.935424 C 501.54285714286 90.119424 502.45485714286 90.711424 503.86285714286 90.711424 L 508.18285714286 90.711424 L 508.18285714286 93.591424 C 503.57485714286 95.447424 499.99085714286 96.375424 497.43085714286 96.375424 C 496.47085714286 96.375424 495.67085714286 96.215424 495.03085714286 95.895424 C 494.39085714286 95.575424 493.87885714286 95.015424 493.49485714286 94.215424 C 493.11085714286 93.415424 492.83885714286 92.343424 492.67885714286 90.999424 C 492.51885714286 89.655424 492.43885714286 87.959424 492.43885714286 85.911424 L 492.05485714286 85.911424 C 490.07085714286 89.175424 487.44685714286 91.735424 484.18285714286 93.591424 C 480.91885714286 95.447424 477.39885714286 96.375424 473.62285714286 96.375424 C 469.59085714286 96.375424 466.42285714286 95.303424 464.11885714286 93.159424 C 461.81485714286 91.015424 460.66285714286 88.023424 460.66285714286 84.183424 Z M 477.65485714286 90.807424 C 479.44685714286 90.807424 481.31885714286 90.343424 483.27085714286 89.415424 C 485.22285714286 88.487424 486.87085714286 87.191424 488.21485714286 85.527424 C 490.19885714286 83.095424 491.19085714286 79.511424 491.19085714286 74.775424 C 491.19085714286 73.687424 491.15885714286 72.615424 491.09485714286 71.559424 C 491.03085714286 70.503424 490.93485714286 69.495424 490.80685714286 68.535424 C 486.90285714286 69.303424 483.65485714286 70.103424 481.06285714286 70.935424 C 478.47085714286 71.767424 476.39085714286 72.711424 474.82285714286 73.767424 C 473.25485714286 74.823424 472.15085714286 76.039424 471.51085714286 77.415424 C 470.87085714286 78.791424 470.55085714286 80.375424 470.55085714286 82.167424 C 470.55085714286 84.919424 471.17485714286 87.047424 472.42285714286 88.551424 C 473.67085714286 90.055424 475.41485714286 90.807424 477.65485714286 90.807424 Z"/></svg>