<svg width="1000" height="1000" viewBox="0 0 1000 1000" xmlns="http://www.w3.org/2000/svg"><defs/><path fill="#ff6600" transform="matrix(0.5057509257605627 0 0 0.5057509257605627 68.07460087376984 34.39973556706484)" d="M 790.87789619552 846.1163596036 C 786.97789619552 852.8163596036 778.37789619552 855.1163596036 771.67789619552 851.3163596036 L 685.87789619552 801.7163596036 L 685.87789619552 825.2163596036 C 685.87789619552 836.5163596036 693.87789619552 850.3163596036 703.67789619552 856.0163596036 L 836.27789619552 932.6163596036 C 846.07789619552 938.2163596036 862.07789619552 938.2163596036 871.77789619552 932.6163596036 L 918.27789619552 905.7163596036 L 790.97789619552 832.2163596036 C 793.27789619552 836.4163596036 793.47789619552 841.7163596036 790.87789619552 846.1163596036 Z"/><path fill="#ff6600" transform="matrix(0.5057509257605627 0 0 0.5057509257605627 68.07460087376984 34.39973556706484)" d="M 879.67789619552 813.3163596036 C 875.77789619552 820.0163596036 867.17789619552 822.3163596036 860.47789619552 818.5163596036 L 685.77789619552 717.6163596036 L 685.77789619552 754.6163596036 L 932.77789619552 897.2163596036 L 990.97789619552 863.6163596036 L 879.67789619552 799.3163596036 C 882.07789619552 803.6163596036 882.27789619552 808.9163596036 879.67789619552 813.3163596036 Z"/><path fill="#0f3877" transform="matrix(0.5057509257605627 0 0 0.5057509257605627 68.07460087376984 34.39973556706484)" d="M 969.67789619552 781.2163596036 C 965.77789619552 787.9163596036 957.17789619552 790.2163596036 950.47789619552 786.4163596036 L 701.47789619552 642.6163596036 C 693.07789619552 648.6163596036 686.47789619552 660.4163596036 685.87789619552 670.6163596036 L 1005.57789619552 855.2163596036 C 1014.77789619552 849.2163596036 1022.17789619552 836.0163596036 1022.17789619552 825.2163596036 L 1022.17789619552 797.5163596036 L 969.77789619552 767.2163596036 C 972.07789619552 771.5163596036 972.27789619552 776.7163596036 969.67789619552 781.2163596036 Z"/><path fill="#0f3877" transform="matrix(0.5057509257605627 0 0 0.5057509257605627 68.07460087376984 34.39973556706484)" d="M 943.57789619552 682.1163596036 C 939.67789619552 688.8163596036 931.07789619552 691.1163596036 924.37789619552 687.3163596036 L 774.17789619552 600.6163596036 L 742.17789619552 619.1163596036 L 1022.27789619552 780.8163596036 L 1022.27789619552 713.6163596036 L 943.77789619552 668.3163596036 C 945.97789619552 672.4163596036 946.17789619552 677.6163596036 943.57789619552 682.1163596036 Z"/><path fill="#0f3877" transform="matrix(0.5057509257605627 0 0 0.5057509257605627 68.07460087376984 34.39973556706484)" d="M 1022.17789619552 672.0163596036 C 1022.17789619552 660.7163596036 1014.17789619552 646.9163596036 1004.37789619552 641.2163596036 L 871.77789619552 564.7163596036 C 861.97789619552 559.1163596036 845.97789619552 559.1163596036 836.27789619552 564.7163596036 L 814.87789619552 577.0163596036 L 1022.17789619552 696.7163596036 L 1022.17789619552 672.0163596036 Z"/><path id="text" fill="#0f3877" transform="matrix(1.230720051146823 0 0 1.230720051146823 -3.020858307365978 424.6067929353451)" d="M 124.33441558442 131.91851948052 L 134.01623376623 131.91851948052 L 153.37987012987 164.50942857143 L 154.19805194805 164.50942857143 L 173.56168831169 131.91851948052 L 183.24350649351 131.91851948052 L 158.01623376623 172.96397402597 L 158.01623376623 201.7367012987 L 149.56168831169 201.7367012987 L 149.56168831169 172.96397402597 L 124.33441558442 131.91851948052 Z M 194.1525974026 201.7367012987 L 194.1525974026 131.91851948052 L 236.28896103896 131.91851948052 L 236.28896103896 139.41851948052 L 202.60714285714 139.41851948052 L 202.60714285714 163.00942857143 L 234.10714285714 163.00942857143 L 234.10714285714 170.50942857143 L 202.60714285714 170.50942857143 L 202.60714285714 194.2367012987 L 236.83441558442 194.2367012987 L 236.83441558442 201.7367012987 L 194.1525974026 201.7367012987 Z M 306.92532467532 131.91851948052 L 306.92532467532 201.7367012987 L 298.74350649351 201.7367012987 L 260.69805194805 146.91851948052 L 260.01623376623 146.91851948052 L 260.01623376623 201.7367012987 L 251.56168831169 201.7367012987 L 251.56168831169 131.91851948052 L 259.74350649351 131.91851948052 L 297.92532467532 186.87306493506 L 298.60714285714 186.87306493506 L 298.60714285714 131.91851948052 L 306.92532467532 131.91851948052 Z M 323.83441558442 201.7367012987 L 323.83441558442 131.91851948052 L 365.97077922078 131.91851948052 L 365.97077922078 139.41851948052 L 332.28896103896 139.41851948052 L 332.28896103896 163.00942857143 L 363.78896103896 163.00942857143 L 363.78896103896 170.50942857143 L 332.28896103896 170.50942857143 L 332.28896103896 194.2367012987 L 366.51623376623 194.2367012987 L 366.51623376623 201.7367012987 L 323.83441558442 201.7367012987 Z M 416.28896103896 201.7367012987 L 416.28896103896 209.2367012987 L 372.6525974026 209.2367012987 L 372.6525974026 201.7367012987 L 416.28896103896 201.7367012987 Z M 424.60714285714 201.7367012987 L 424.60714285714 131.91851948052 L 448.19805194805 131.91851948052 C 453.67532467532 131.91851948052 458.15827922078 132.90147402597 461.64691558442 134.86738311688 C 465.13555194805 136.83329220779 467.72077922078 139.4867012987 469.4025974026 142.82761038961 C 471.08441558442 146.16851948052 471.92532467532 149.89579220779 471.92532467532 154.00942857143 C 471.92532467532 158.12306493506 471.0900974026 161.8617012987 469.41964285714 165.22533766234 C 467.74918831169 168.58897402597 465.17532467532 171.26511038961 461.69805194805 173.25374675325 C 458.22077922078 175.24238311688 453.76623376623 176.2367012987 448.33441558442 176.2367012987 L 431.42532467532 176.2367012987 L 431.42532467532 168.7367012987 L 448.06168831169 168.7367012987 C 451.81168831169 168.7367012987 454.82305194805 168.08897402597 457.09577922078 166.79351948052 C 459.36850649351 165.49806493506 461.02191558442 163.74238311688 462.05600649351 161.52647402597 C 463.0900974026 159.31056493506 463.60714285714 156.80488311688 463.60714285714 154.00942857143 C 463.60714285714 151.21397402597 463.0900974026 148.71397402597 462.05600649351 146.50942857143 C 461.02191558442 144.30488311688 459.35714285714 142.57192857143 457.06168831169 141.31056493506 C 454.76623376623 140.0492012987 451.72077922078 139.41851948052 447.92532467532 139.41851948052 L 433.06168831169 139.41851948052 L 433.06168831169 201.7367012987 L 424.60714285714 201.7367012987 Z M 485.56168831169 201.7367012987 L 485.56168831169 131.91851948052 L 509.1525974026 131.91851948052 C 514.60714285714 131.91851948052 519.08441558442 132.84465584415 522.58441558442 134.69692857143 C 526.08441558442 136.5492012987 528.67532467532 139.08897402597 530.35714285714 142.31624675325 C 532.03896103896 145.54351948052 532.87987012987 149.21397402597 532.87987012987 153.32761038961 C 532.87987012987 157.44124675325 532.03896103896 161.08897402597 530.35714285714 164.27079220779 C 528.67532467532 167.45261038961 526.09577922078 169.94692857143 522.61850649351 171.75374675325 C 519.14123376623 173.56056493506 514.69805194805 174.46397402597 509.28896103896 174.46397402597 L 490.19805194805 174.46397402597 L 490.19805194805 166.82761038961 L 509.01623376623 166.82761038961 C 512.74350649351 166.82761038961 515.74918831169 166.28215584415 518.03327922078 165.19124675325 C 520.31737012987 164.10033766234 521.97646103896 162.5492012987 523.01055194805 160.53783766234 C 524.04464285714 158.52647402597 524.56168831169 156.12306493506 524.56168831169 153.32761038961 C 524.56168831169 150.53215584415 524.03896103896 148.08897402597 522.99350649351 145.99806493506 C 521.94805194805 143.90715584415 520.2775974026 142.28783766234 517.98214285714 141.14011038961 C 515.68668831169 139.99238311688 512.6525974026 139.41851948052 508.87987012987 139.41851948052 L 494.01623376623 139.41851948052 L 494.01623376623 201.7367012987 L 485.56168831169 201.7367012987 Z M 518.42532467532 170.37306493506 L 535.60714285714 201.7367012987 L 525.78896103896 201.7367012987 L 508.87987012987 170.37306493506 L 518.42532467532 170.37306493506 Z M 555.37987012987 131.91851948052 L 555.37987012987 201.7367012987 L 546.92532467532 201.7367012987 L 546.92532467532 131.91851948052 L 555.37987012987 131.91851948052 Z M 627.6525974026 131.91851948052 L 627.6525974026 201.7367012987 L 619.47077922078 201.7367012987 L 581.42532467532 146.91851948052 L 580.74350649351 146.91851948052 L 580.74350649351 201.7367012987 L 572.28896103896 201.7367012987 L 572.28896103896 131.91851948052 L 580.47077922078 131.91851948052 L 618.6525974026 186.87306493506 L 619.33441558442 186.87306493506 L 619.33441558442 131.91851948052 L 627.6525974026 131.91851948052 Z M 640.74350649351 139.41851948052 L 640.74350649351 131.91851948052 L 693.10714285714 131.91851948052 L 693.10714285714 139.41851948052 L 671.1525974026 139.41851948052 L 671.1525974026 201.7367012987 L 662.69805194805 201.7367012987 L 662.69805194805 139.41851948052 L 640.74350649351 139.41851948052 Z"/></svg>